<?xml version="1.0" standalone="no"?>
<!DOCTYPE svg PUBLIC "-//W3C//DTD SVG 20010904//EN"
 "http://www.w3.org/TR/2001/REC-SVG-20010904/DTD/svg10.dtd">
<svg version="1.0" xmlns="http://www.w3.org/2000/svg"
 width="640.000000pt" height="1280.000000pt" viewBox="0 0 640.000000 1280.000000"
 preserveAspectRatio="xMidYMid meet">
<metadata>
Created by potrace 1.15, written by Peter Selinger 2001-2017
</metadata>
<g transform="translate(0.000000,1280.000000) scale(0.100000,-0.100000)"
fill="#000000" stroke="none">
<path d="M3040 12739 c-516 -82 -941 -476 -1069 -988 -33 -131 -44 -249 -38
-407 5 -129 11 -170 46 -309 138 -553 396 -1023 803 -1462 l95 -103 -8 -52
c-4 -29 -10 -83 -14 -119 l-6 -66 -82 -80 -82 -80 -357 -153 c-388 -165 -420
-184 -471 -277 -37 -69 -54 -152 -67 -338 -11 -158 -13 -165 -110 -505 -54
-190 -133 -469 -175 -620 -62 -219 -85 -289 -117 -341 -52 -88 -103 -212 -129
-312 -26 -98 -30 -261 -10 -354 11 -48 12 -159 8 -535 -7 -646 -28 -838 -134
-1253 -30 -118 -36 -163 -41 -284 -8 -233 27 -374 125 -494 98 -121 282 -298
421 -406 l132 -103 39 32 40 31 -37 63 c-25 43 -58 80 -102 115 -84 67 -154
155 -239 300 -85 143 -95 186 -96 386 0 164 13 258 53 378 24 74 26 78 50 72
14 -3 40 -18 59 -32 39 -30 159 -177 248 -303 l60 -85 11 64 12 65 -51 95
c-120 227 -217 380 -292 461 -28 30 -34 47 -44 113 -26 185 -10 412 55 782
l35 200 54 55 c104 108 181 251 220 412 36 147 29 387 -17 582 -19 83 -20 99
-9 245 14 185 33 315 67 469 32 143 93 352 134 460 l32 82 42 0 c34 0 48 -6
74 -32 33 -35 67 -106 97 -202 15 -51 16 -66 6 -110 -63 -266 -81 -412 -82
-638 0 -193 11 -309 56 -575 32 -183 31 -241 0 -340 -116 -367 -217 -994 -246
-1515 -11 -215 -2 -513 21 -688 5 -36 11 -184 15 -330 l7 -265 -36 -140 c-88
-352 -115 -630 -82 -870 8 -55 28 -179 45 -275 16 -97 35 -250 41 -340 6 -91
15 -228 20 -306 5 -77 15 -217 21 -310 21 -313 -9 -469 -126 -643 -42 -64
-184 -212 -275 -286 -24 -21 -67 -57 -94 -82 l-50 -44 46 -46 47 -46 83 11
c136 19 149 18 193 -28 l39 -39 71 39 c95 53 138 54 185 5 19 -19 39 -35 45
-35 6 0 24 14 41 31 16 18 55 48 86 69 49 32 87 49 205 91 21 8 21 9 6 76 -8
37 -28 102 -44 143 -25 65 -29 89 -29 178 0 96 -2 106 -28 145 -73 109 -78
144 -112 784 l-31 563 49 73 c166 245 252 465 252 643 0 128 -43 271 -120 396
l-30 48 0 409 0 408 104 214 c130 267 173 368 235 555 57 171 98 328 137 529
26 133 29 142 63 175 20 19 43 45 51 57 15 22 16 23 60 7 35 -13 67 -15 150
-10 58 3 115 9 127 12 18 5 25 -1 41 -33 11 -22 34 -52 50 -69 16 -16 32 -38
35 -49 3 -11 60 -180 127 -375 67 -195 148 -431 180 -525 32 -93 81 -237 110
-320 l51 -150 10 -389 10 -389 -45 -86 c-85 -167 -118 -336 -97 -502 21 -169
64 -293 197 -568 l94 -194 0 -276 c0 -278 -7 -401 -36 -631 -15 -114 -19 -131
-56 -193 -84 -140 -109 -247 -88 -368 l12 -66 -46 -91 -46 -91 20 -45 c17 -41
27 -49 100 -86 114 -58 210 -90 264 -90 l46 0 0 46 c0 43 2 46 23 40 12 -3 31
-6 43 -6 14 0 26 -13 40 -40 l19 -40 52 35 c47 32 59 35 122 35 39 0 116 5
171 11 93 11 102 14 121 40 l20 28 -25 48 c-26 51 -70 89 -216 185 -152 100
-225 199 -285 388 -21 68 -28 117 -36 245 -21 359 27 924 96 1135 86 263 88
503 5 829 -16 64 -35 134 -43 156 -11 34 -12 131 -1 620 19 900 2 1337 -72
1794 -32 202 -84 436 -135 611 -26 89 -30 116 -26 180 3 41 15 105 26 142 98
309 103 659 21 1244 -32 231 -22 350 33 402 l23 22 25 -28 c172 -188 270 -455
313 -852 33 -301 34 -338 9 -410 -35 -104 -46 -200 -40 -355 12 -296 117 -627
261 -823 25 -34 46 -68 46 -76 0 -7 13 -67 29 -132 44 -174 49 -217 57 -445
l6 -206 -51 -99 c-60 -117 -125 -203 -187 -247 -74 -52 -134 -166 -134 -256 0
-39 46 -120 60 -104 4 4 18 38 30 76 l24 68 60 -7 c86 -10 101 -17 170 -87 88
-87 120 -157 120 -262 0 -142 -46 -243 -252 -554 l-141 -213 26 -34 c14 -19
31 -34 38 -34 7 0 40 18 74 41 119 79 242 240 409 535 l92 161 0 194 c0 158
-5 224 -25 354 -36 230 -62 363 -96 500 -28 110 -33 156 -58 560 -27 423 -27
442 -11 485 39 100 62 232 62 351 0 198 -51 385 -174 639 -47 99 -78 177 -94
245 -14 55 -67 233 -119 395 -51 162 -115 367 -141 455 -44 153 -46 163 -35
216 25 122 7 265 -46 377 -37 78 -124 165 -188 187 -27 9 -88 35 -134 57 -46
22 -133 61 -195 88 -61 26 -178 80 -259 120 -189 92 -212 120 -248 308 l-12
64 70 71 c331 339 615 775 748 1147 87 241 146 524 152 731 22 636 -377 1179
-987 1343 -131 35 -364 47 -500 25z"/>
</g>
</svg>
